<svg height="1em" viewBox="0 0.5 12 12" xmlns="http://www.w3.org/2000/svg">
<rect x="7" y="5.5" width="2" height="2" rx="1" transform="rotate(90 7 5.5)" fill="currentColor"/>
<path fill-rule="evenodd" clip-rule="evenodd" d="M10.8 9L10.8 9.5C10.8 10.4941 9.99411 11.3 9 11.3L3 11.3C2.00589 11.3 1.2 10.4941 1.2 9.5L1.2 9L-3.71547e-07 9L-3.93402e-07 9.5C-4.65826e-07 11.1569 1.34314 12.5 3 12.5L9 12.5C10.6569 12.5 12 11.1569 12 9.5L12 9L10.8 9ZM10.8 4L12 4L12 3.5C12 1.84315 10.6569 0.5 9 0.5L3 0.5C1.34315 0.5 -5.87117e-08 1.84315 -1.31135e-07 3.5L-1.5299e-07 4L1.2 4L1.2 3.5C1.2 2.50589 2.00589 1.7 3 1.7L9 1.7C9.99411 1.7 10.8 2.50589 10.8 3.5L10.8 4Z" fill="currentColor"/>
</svg>
