<svg xmlns="http://www.w3.org/2000/svg" height="1em" fill="none" viewBox="0 0 20 24">
  <path stroke="currentColor" stroke-width="1.5" d="M.75 3A2.25 2.25 0 0 1 3 .75h14.25a1 1 0 0 1 1 1v3.5"/>
  <path stroke="currentColor" stroke-width="1.5" d="M.75 3A2.25 2.25 0 0 0 3 5.25h15.25a1 1 0 0 1 1 1v16a1 1 0 0 1-1 1H3A2.25 2.25 0 0 1 .75 21z"/>
  <path fill="currentColor" fill-rule="evenodd" d="M3 5.25A2.25 2.25 0 0 1 .75 3v18A2.25 2.25 0 0 0 3 23.25h15.25a1 1 0 0 0 1-1v-16a1 1 0 0 0-1-1zM13 11H6v1.5h7z" clip-rule="evenodd"/>
</svg>
