<svg height="1em" viewBox="0 0 12 12" fill="none" xmlns="http://www.w3.org/2000/svg">
<rect x="5" y="5" width="2" height="2" rx="1" fill="currentColor"/>
<path fill-rule="evenodd" clip-rule="evenodd" d="M8.5 1.2H9C9.99411 1.2 10.8 2.00589 10.8 3V9C10.8 9.99411 9.99411 10.8 9 10.8H8.5V12H9C10.6569 12 12 10.6569 12 9V3C12 1.34315 10.6569 0 9 0H8.5V1.2ZM3.5 1.2V0H3C1.34315 0 0 1.34315 0 3V9C0 10.6569 1.34315 12 3 12H3.5V10.8H3C2.00589 10.8 1.2 9.99411 1.2 9V3C1.2 2.00589 2.00589 1.2 3 1.2H3.5Z" fill="currentColor"/>
</svg>
