<svg xmlns="http://www.w3.org/2000/svg" height="1em" fill="none" viewBox="0 0 19 18">
  <path stroke="currentColor" stroke-linecap="round" stroke-linejoin="round" stroke-width="1.125" d="M1.5 14.565a2.435 2.435 0 0 0 4.87 0v-2.434H3.935A2.434 2.434 0 0 0 1.5 14.564M3.935 1a2.435 2.435 0 1 0 0 4.87H6.37V3.435a2.435 2.435 0 0 0-2.435-2.434m11.13 11.129H12.63v2.435a2.435 2.435 0 1 0 2.435-2.434m-2.433-6.263H6.37v6.26h6.262z"/>
  <path stroke="currentColor" stroke-linecap="round" stroke-linejoin="round" stroke-width="1.125" d="M17.5 3.435a2.435 2.435 0 1 0-4.87 0v2.434h2.435A2.435 2.435 0 0 0 17.5 3.435"/>
</svg>
