<svg xmlns="http://www.w3.org/2000/svg" height="1em" fill="none" viewBox="0 0 14 14">
  <path fill="currentColor" d="m.75 13.25-.695-.283a.75.75 0 0 0 .99.972zM12.821 1.833l-.53.53zm0 2.069.53.53zm-2.723-2.723-.53-.53zm2.07 0 .53-.53zM2.58 8.757l.695.283zm.12-.181.531.53zm2.548 2.843-.294-.69zm.172-.116-.53-.53zm-.466-.573c-.865.369-1.536.632-2.219.9-.684.27-1.38.544-2.28.93l.59 1.38a75 75 0 0 1 2.24-.913c.683-.27 1.37-.54 2.257-.918zm-3.51 2.803L3.276 9.04l-1.39-.566-1.83 4.493zm1.787-4.427 7.397-7.397-1.06-1.06L2.17 8.045zm8.406-7.397.654.654 1.06-1.06-.653-.655zm.654 1.663-7.401 7.4 1.06 1.061 7.402-7.4zm0-1.01a.713.713 0 0 1 0 1.01l1.06 1.06a2.213 2.213 0 0 0 0-3.13zm-1.663-.653a.713.713 0 0 1 1.01 0l1.06-1.06a2.213 2.213 0 0 0-3.13 0zm-7.353 7.33a.2.2 0 0 1-.044.067l-1.06-1.06c-.123.122-.22.268-.285.428zm2.267 3.07a1.3 1.3 0 0 0 .409-.276l-1.061-1.06a.2.2 0 0 1 .064-.043z"/>
  <path stroke="currentColor" stroke-linecap="round" stroke-linejoin="round" stroke-width="1.403" d="m11.5 4.5-2-2m-4 8-2-2"/>
</svg>
