<svg xmlns="http://www.w3.org/2000/svg" height="1em" fill="none" viewBox="0 0 21 20">
  <path fill="currentColor" fill-rule="evenodd" d="M9.292 1.927a1.7 1.7 0 0 1-.584-.427L7.866.575A1.741 1.741 0 0 0 4.84 1.83l.064 1.25a1.743 1.743 0 0 1-1.828 1.827l-1.245-.064A1.741 1.741 0 0 0 .575 7.876l.925.836a1.733 1.733 0 0 1 0 2.584l-.925.836a1.742 1.742 0 0 0 1.25 3.028l1.246-.064a1.74 1.74 0 0 1 1.828 1.828l-.064 1.245a1.741 1.741 0 0 0 3.031 1.256l.847-.925a1.732 1.732 0 0 1 2.584 0l.836.925a1.741 1.741 0 0 0 3.031-1.256l-.064-1.245a1.743 1.743 0 0 1 1.828-1.828l1.245.064a1.74 1.74 0 0 0 1.256-3.032l-.925-.836a1.732 1.732 0 0 1 0-2.584l.925-.836a1.742 1.742 0 0 0-1.255-3.032l-1.246.064A1.743 1.743 0 0 1 15.1 3.076l.064-1.245A1.742 1.742 0 0 0 12.133.575l-.842.925a1.73 1.73 0 0 1-2 .427M14.375 10a4.375 4.375 0 1 1-8.75 0 4.375 4.375 0 0 1 8.75 0" clip-rule="evenodd"/>
</svg>
