<svg width="1em" height="5em" xmlns="http://www.w3.org/2000/svg" fill-rule="evenodd" aria-hidden="true" viewBox="0 0 23 23" style="height: 1.5em;" clip-rule="evenodd">
<title>trash icon</title>
<path d="M19 24h-14c-1.104 0-2-.896-2-2v-17h-1v-2h6v-1.5c0-.827.673-1.5 1.5-1.5h5c.825 0 1.5.671 1.5 1.5v1.5h6v2h-1v17c0 1.104-.896 2-2 2zm0-19h-14v16.5c0 .276.224.5.5.5h13c.276 0 .5-.224.5-.5v-16.5zm-7 7.586l3.293-3.293 1.414 1.414-3.293 3.293 3.293 3.293-1.414 1.414-3.293-3.293-3.293 3.293-1.414-1.414 3.293-3.293-3.293-3.293 1.414-1.414 3.293 3.293zm2-10.586h-4v1h4v-1z" fill="currentColor" stroke-width=".25" stroke="currentColor">
</path>
</svg>
