<svg width="32" height="37" viewBox="0 0 32 37" fill="none" xmlns="http://www.w3.org/2000/svg">
<rect x="12.75" y="0.75" width="18.5" height="23.5" stroke="#979797" stroke-width="1.5"/>
<path d="M22.1807 15.6838C22.1807 16.3903 22.2319 16.9886 22.3343 17.4786C22.4367 17.9687 22.5843 18.3647 22.7771 18.6667C22.9699 18.9687 23.2108 19.188 23.5 19.3248C23.7892 19.4615 24.1265 19.5299 24.512 19.5299C24.6446 19.5299 24.759 19.5755 24.8554 19.6667C24.9518 19.7578 25 19.8661 25 19.9915V20.5385C25 20.6638 24.9518 20.7721 24.8554 20.8632C24.759 20.9544 24.6446 21 24.512 21C23.8855 21 23.3253 20.886 22.8313 20.6581C22.3373 20.4302 21.9217 20.1054 21.5843 19.6838C21.247 19.2621 20.988 18.7493 20.8072 18.1453C20.6265 17.5413 20.5361 16.8689 20.5361 16.1282C20.5361 15.547 20.4789 15.0712 20.3645 14.7009C20.25 14.3305 19.988 14.0541 19.5783 13.8718C19.1928 13.7122 19 13.4843 19 13.188V12.7949C19 12.4986 19.1928 12.2707 19.5783 12.1111C19.988 11.9288 20.25 11.6553 20.3645 11.2906C20.4789 10.9259 20.5361 10.453 20.5361 9.87179C20.5361 9.13105 20.6265 8.45869 20.8072 7.8547C20.988 7.25071 21.247 6.73789 21.5843 6.31624C21.9217 5.89458 22.3373 5.5698 22.8313 5.34188C23.3253 5.11396 23.8855 5 24.512 5C24.6446 5 24.759 5.04558 24.8554 5.13675C24.9518 5.22792 25 5.33618 25 5.46154V6.00855C25 6.1339 24.9518 6.24216 24.8554 6.33333C24.759 6.4245 24.6446 6.47009 24.512 6.47009C24.1265 6.47009 23.7892 6.53846 23.5 6.67521C23.2108 6.81197 22.9699 7.03134 22.7771 7.33333C22.5843 7.63533 22.4367 8.03134 22.3343 8.52137C22.2319 9.0114 22.1807 9.60968 22.1807 10.3162C22.1807 10.943 22.0753 11.4929 21.8645 11.9658C21.6536 12.4387 21.3313 12.7778 20.8976 12.9829C21.3313 13.188 21.6536 13.5328 21.8645 14.0171C22.0753 14.5014 22.1807 15.057 22.1807 15.6838Z" fill="#999999"/>
<rect x="6.75" y="6.75" width="18.5" height="23.5" stroke="#979797" stroke-width="1.5"/>
<path d="M16.1807 21.6838C16.1807 22.3903 16.2319 22.9886 16.3343 23.4786C16.4367 23.9687 16.5843 24.3647 16.7771 24.6667C16.9699 24.9687 17.2108 25.188 17.5 25.3248C17.7892 25.4615 18.1265 25.5299 18.512 25.5299C18.6446 25.5299 18.759 25.5755 18.8554 25.6667C18.9518 25.7578 19 25.8661 19 25.9915V26.5385C19 26.6638 18.9518 26.7721 18.8554 26.8632C18.759 26.9544 18.6446 27 18.512 27C17.8855 27 17.3253 26.886 16.8313 26.6581C16.3373 26.4302 15.9217 26.1054 15.5843 25.6838C15.247 25.2621 14.988 24.7493 14.8072 24.1453C14.6265 23.5413 14.5361 22.8689 14.5361 22.1282C14.5361 21.547 14.4789 21.0712 14.3645 20.7009C14.25 20.3305 13.988 20.0541 13.5783 19.8718C13.1928 19.7122 13 19.4843 13 19.188V18.7949C13 18.4986 13.1928 18.2707 13.5783 18.1111C13.988 17.9288 14.25 17.6553 14.3645 17.2906C14.4789 16.9259 14.5361 16.453 14.5361 15.8718C14.5361 15.1311 14.6265 14.4587 14.8072 13.8547C14.988 13.2507 15.247 12.7379 15.5843 12.3162C15.9217 11.8946 16.3373 11.5698 16.8313 11.3419C17.3253 11.114 17.8855 11 18.512 11C18.6446 11 18.759 11.0456 18.8554 11.1368C18.9518 11.2279 19 11.3362 19 11.4615V12.0085C19 12.1339 18.9518 12.2422 18.8554 12.3333C18.759 12.4245 18.6446 12.4701 18.512 12.4701C18.1265 12.4701 17.7892 12.5385 17.5 12.6752C17.2108 12.812 16.9699 13.0313 16.7771 13.3333C16.5843 13.6353 16.4367 14.0313 16.3343 14.5214C16.2319 15.0114 16.1807 15.6097 16.1807 16.3162C16.1807 16.943 16.0753 17.4929 15.8645 17.9658C15.6536 18.4387 15.3313 18.7778 14.8976 18.9829C15.3313 19.188 15.6536 19.5328 15.8645 20.0171C16.0753 20.5014 16.1807 21.057 16.1807 21.6838Z" fill="#999999"/>
<rect x="0.75" y="12.75" width="18.5" height="23.5" stroke="#979797" stroke-width="1.5"/>
<path d="M10.1807 27.6838C10.1807 28.3903 10.2319 28.9886 10.3343 29.4786C10.4367 29.9687 10.5843 30.3647 10.7771 30.6667C10.9699 30.9687 11.2108 31.188 11.5 31.3248C11.7892 31.4615 12.1265 31.5299 12.512 31.5299C12.6446 31.5299 12.759 31.5755 12.8554 31.6667C12.9518 31.7578 13 31.8661 13 31.9915V32.5385C13 32.6638 12.9518 32.7721 12.8554 32.8632C12.759 32.9544 12.6446 33 12.512 33C11.8855 33 11.3253 32.886 10.8313 32.6581C10.3373 32.4302 9.92169 32.1054 9.58434 31.6838C9.24699 31.2621 8.98795 30.7493 8.80723 30.1453C8.62651 29.5413 8.53614 28.8689 8.53614 28.1282C8.53614 27.547 8.47892 27.0712 8.36446 26.7009C8.25 26.3305 7.98795 26.0541 7.57831 25.8718C7.19277 25.7122 7 25.4843 7 25.188V24.7949C7 24.4986 7.19277 24.2707 7.57831 24.1111C7.98795 23.9288 8.25 23.6553 8.36446 23.2906C8.47892 22.9259 8.53614 22.453 8.53614 21.8718C8.53614 21.1311 8.62651 20.4587 8.80723 19.8547C8.98795 19.2507 9.24699 18.7379 9.58434 18.3162C9.92169 17.8946 10.3373 17.5698 10.8313 17.3419C11.3253 17.114 11.8855 17 12.512 17C12.6446 17 12.759 17.0456 12.8554 17.1368C12.9518 17.2279 13 17.3362 13 17.4615V18.0085C13 18.1339 12.9518 18.2422 12.8554 18.3333C12.759 18.4245 12.6446 18.4701 12.512 18.4701C12.1265 18.4701 11.7892 18.5385 11.5 18.6752C11.2108 18.812 10.9699 19.0313 10.7771 19.3333C10.5843 19.6353 10.4367 20.0313 10.3343 20.5214C10.2319 21.0114 10.1807 21.6097 10.1807 22.3162C10.1807 22.943 10.0753 23.4929 9.86446 23.9658C9.65361 24.4387 9.33133 24.7778 8.89759 24.9829C9.33133 25.188 9.65361 25.5328 9.86446 26.0171C10.0753 26.5014 10.1807 27.057 10.1807 27.6838Z" fill="#999999"/>
</svg>
